# xmcd
#
# Track frame offsets: 
#        150
#        23632
#        39304
#        55397
#        73008
#        102316
#        126872
#        148208
#        173260
#        198061
#        216669
#        234280
#        252007
#        270382
#        288273
#        306158
#
# Disc length: 4365 seconds
#
# Revision: 0
# Processed by: cddbd v1.5.2PL0 Copyright (c) Steve Scherf et al.
# Submitted via: ExactAudioCopy v0.95b4
#
DISCID=e0110b10
DTITLE=Various Artist - Don´s Black Vol 8
DYEAR=1900
DGENRE=
TTITLE0=Squeezer - Without you
TTITLE1=DesRee - Life
TTITLE2=Usher - My way
TTITLE3=Monica - The first night
TTITLE4=Dru Hill - In my bed
TTITLE5=Will Smith - Men in black
TTITLE6=House of Pain - Jump around
TTITLE7=Shaggy - Mr. Boombastic
TTITLE8=Montel Jordan - This is how we do it
TTITLE9=Robbie Williams - Millenium
TTITLE10=Monica - The first night
TTITLE11=Bill Whithers - Just the 2 of us
TTITLE12=Five - When the lights go out
TTITLE13=Dr Dre - Nothing but a G thing
TTITLE14=Dr Dre - Keep their heads ringing
TTITLE15=Gucci Crew - Sally that girl
EXTD=
EXTT0=
EXTT1=
EXTT2=
EXTT3=
EXTT4=
EXTT5=
EXTT6=
EXTT7=
EXTT8=
EXTT9=
EXTT10=
EXTT11=
EXTT12=
EXTT13=
EXTT14=
EXTT15=
PLAYORDER=
